<svg width="93" height="76" viewBox="0 0 93 76" fill="none" xmlns="http://www.w3.org/2000/svg">
<path d="M6.58394 25.1696V31.5412C6.58394 31.703 6.67496 31.8041 6.85701 31.8446C7.56496 31.9457 8.23245 31.9963 8.8595 31.9963C10.5384 31.9963 11.7621 31.6929 12.5307 31.086C13.3196 30.459 13.714 29.5083 13.714 28.234C13.714 27.1013 13.2589 26.272 12.3487 25.7461C11.4587 25.1999 9.97199 24.9269 7.88859 24.9269H6.82667C6.66485 24.9269 6.58394 25.0078 6.58394 25.1696ZM6.58394 16.3101V21.4984C6.58394 21.6804 6.66485 21.7714 6.82667 21.7714H7.70655C9.58767 21.7714 10.9429 21.5186 11.7722 21.0129C12.6217 20.487 13.0465 19.7184 13.0465 18.707C13.0465 17.7361 12.7027 17.0181 12.0149 16.5528C11.3272 16.0876 10.2046 15.855 8.64711 15.855C7.93916 15.855 7.33235 15.8954 6.82667 15.9764C6.66485 16.0168 6.58394 16.1281 6.58394 16.3101ZM4.096 35.0607C3.61055 35.0202 3.20601 34.818 2.88237 34.4539C2.55874 34.0696 2.39692 33.6246 2.39692 33.1189V14.7324C2.39692 14.2267 2.55874 13.7918 2.88237 13.4277C3.20601 13.0434 3.62066 12.831 4.12634 12.7906C5.62315 12.6288 7.06939 12.5479 8.46507 12.5479C14.1287 12.5479 16.9605 14.3986 16.9605 18.1002C16.9605 19.3341 16.5458 20.4061 15.7165 21.3163C14.8872 22.2265 13.7949 22.8131 12.4397 23.0761C12.4195 23.0761 12.4094 23.0862 12.4094 23.1064C12.4094 23.1469 12.4195 23.1671 12.4397 23.1671C14.0983 23.4098 15.3929 24.0268 16.3233 25.0179C17.274 25.9888 17.7493 27.1923 17.7493 28.6284C17.7493 30.8534 17.0212 32.5222 15.5648 33.6347C14.1084 34.7472 11.843 35.3034 8.76847 35.3034C7.23121 35.3034 5.67372 35.2225 4.096 35.0607ZM25.8242 35.3034C24.0442 35.3034 22.7497 34.818 21.9406 33.8471C21.1315 32.8559 20.727 31.1872 20.727 28.8408V20.9522C20.727 20.487 20.8989 20.0825 21.2428 19.7386C21.5866 19.3947 21.9912 19.2228 22.4564 19.2228H22.9419C23.4071 19.2228 23.8116 19.3947 24.1555 19.7386C24.4994 20.0825 24.6713 20.487 24.6713 20.9522V28.4161C24.6713 29.832 24.8634 30.813 25.2478 31.3591C25.6321 31.9052 26.2793 32.1783 27.1896 32.1783C28.0189 32.1783 28.7875 31.8243 29.4955 31.1164C30.2236 30.4084 30.5877 29.6499 30.5877 28.8408V20.9522C30.5877 20.487 30.7597 20.0825 31.1035 19.7386C31.4474 19.3947 31.8519 19.2228 32.3172 19.2228H32.924C33.3892 19.2228 33.7836 19.3947 34.1073 19.7386C34.4511 20.0825 34.6231 20.487 34.6231 20.9522V33.2706C34.6231 33.7358 34.4511 34.1403 34.1073 34.4842C33.7836 34.8281 33.3892 35 32.924 35H32.5295C32.0441 35 31.6294 34.8382 31.2856 34.5145C30.9619 34.1707 30.79 33.756 30.7698 33.2706L30.7394 33.0582C30.7394 33.038 30.7293 33.0279 30.7091 33.0279C30.6889 33.0279 30.6686 33.038 30.6484 33.0582C29.273 34.555 27.6649 35.3034 25.8242 35.3034ZM45.3886 21.9535C43.0624 21.9535 41.8994 23.6728 41.8994 27.1114C41.8994 28.8307 42.2129 30.1253 42.8399 30.995C43.467 31.8446 44.3165 32.2693 45.3886 32.2693C46.3392 32.2693 47.1584 31.9558 47.8462 31.3288C48.5339 30.7017 48.8778 29.9837 48.8778 29.1746V25.0482C48.8778 24.2392 48.5339 23.5211 47.8462 22.894C47.1584 22.267 46.3392 21.9535 45.3886 21.9535ZM44.1749 35.3034C42.3747 35.3034 40.8779 34.5752 39.6845 33.1189C38.4911 31.6423 37.8944 29.6398 37.8944 27.1114C37.8944 24.5021 38.4608 22.4895 39.5935 21.0736C40.7464 19.6375 42.2736 18.9194 44.1749 18.9194C45.8942 18.9194 47.4113 19.5464 48.726 20.8005C48.7463 20.8208 48.7665 20.8309 48.7867 20.8309C48.807 20.8309 48.8171 20.8208 48.8171 20.8005V13.9739C48.8171 13.5086 48.989 13.1041 49.3329 12.7602C49.6767 12.4164 50.0813 12.2444 50.5465 12.2444H51.1533C51.6185 12.2444 52.0231 12.4164 52.3669 12.7602C52.7108 13.1041 52.8827 13.5086 52.8827 13.9739V33.2706C52.8827 33.7358 52.7108 34.1403 52.3669 34.4842C52.0231 34.8281 51.6185 35 51.1533 35H50.8196C50.3341 35 49.9194 34.8382 49.5756 34.5145C49.252 34.1707 49.08 33.756 49.0598 33.2706L49.0295 33.0582C49.0295 33.038 49.0193 33.0279 48.9991 33.0279C48.9789 33.0279 48.9587 33.038 48.9384 33.0582C47.6034 34.555 46.0156 35.3034 44.1749 35.3034ZM63.8182 21.9535C61.4921 21.9535 60.329 23.6728 60.329 27.1114C60.329 28.8307 60.6425 30.1253 61.2696 30.995C61.8966 31.8446 62.7462 32.2693 63.8182 32.2693C64.7689 32.2693 65.5881 31.9558 66.2758 31.3288C66.9635 30.7017 67.3074 29.9837 67.3074 29.1746V25.0482C67.3074 24.2392 66.9635 23.5211 66.2758 22.894C65.5881 22.267 64.7689 21.9535 63.8182 21.9535ZM62.6046 35.3034C60.8043 35.3034 59.3075 34.5752 58.1141 33.1189C56.9207 31.6423 56.324 29.6398 56.324 27.1114C56.324 24.5021 56.8904 22.4895 58.0231 21.0736C59.1761 19.6375 60.7032 18.9194 62.6046 18.9194C64.3239 18.9194 65.8409 19.5464 67.1557 20.8005C67.1759 20.8208 67.1961 20.8309 67.2164 20.8309C67.2366 20.8309 67.2467 20.8208 67.2467 20.8005V13.9739C67.2467 13.5086 67.4186 13.1041 67.7625 12.7602C68.1063 12.4164 68.5109 12.2444 68.9761 12.2444H69.5829C70.0482 12.2444 70.4527 12.4164 70.7966 12.7602C71.1404 13.1041 71.3124 13.5086 71.3124 13.9739V33.2706C71.3124 33.7358 71.1404 34.1403 70.7966 34.4842C70.4527 34.8281 70.0482 35 69.5829 35H69.2492C68.7637 35 68.3491 34.8382 68.0052 34.5145C67.6816 34.1707 67.5096 33.756 67.4894 33.2706L67.4591 33.0582C67.4591 33.038 67.449 33.0279 67.4287 33.0279C67.4085 33.0279 67.3883 33.038 67.3681 33.0582C66.0331 34.555 64.4452 35.3034 62.6046 35.3034ZM79.7295 34.7573L74.693 20.8309C74.5716 20.4263 74.6222 20.0622 74.8447 19.7386C75.0672 19.3947 75.3908 19.2228 75.8156 19.2228H76.7258C77.2315 19.2228 77.6967 19.3846 78.1215 19.7083C78.5462 20.0117 78.8193 20.4061 78.9407 20.8916L81.7624 30.813C81.7624 30.8332 81.7725 30.8433 81.7927 30.8433C81.8129 30.8433 81.823 30.8332 81.823 30.813L85.0695 20.8612C85.2313 20.3758 85.5246 19.9813 85.9494 19.6779C86.3742 19.3745 86.8394 19.2228 87.3451 19.2228H88.0732C88.498 19.2228 88.8216 19.3947 89.0441 19.7386C89.2869 20.0825 89.3273 20.4466 89.1655 20.8309L81.7624 40.0669C81.5803 40.5524 81.2769 40.9367 80.8521 41.2199C80.4274 41.5233 79.952 41.675 79.4261 41.675H78.698C78.2934 41.675 77.9698 41.503 77.727 41.1592C77.5045 40.8355 77.4742 40.4816 77.636 40.0972L79.7295 35.2427C79.77 35.1618 79.7902 35.0809 79.7902 35C79.7902 34.9191 79.77 34.8382 79.7295 34.7573Z" fill="#58C4FF"/>
<path d="M8.76399 53.5917C6.26891 52.76 4.45997 51.7515 3.33718 50.5664C2.23518 49.3812 1.68418 47.9465 1.68418 46.2624C1.68418 44.3702 2.31835 42.8732 3.58669 41.7712C4.85502 40.6692 6.63277 40.1182 8.91994 40.1182C10.8536 40.1182 12.5378 40.3365 13.9725 40.7732C14.4715 40.9187 14.8666 41.2202 15.1577 41.6776C15.4695 42.1143 15.6255 42.6029 15.6255 43.1435V43.4242C15.6255 43.8192 15.4487 44.1311 15.0953 44.3598C14.7418 44.5678 14.3779 44.599 14.0037 44.4534C12.4442 43.8504 10.8536 43.5489 9.23182 43.5489C8.1922 43.5489 7.40209 43.7881 6.86149 44.2663C6.32089 44.7445 6.05059 45.4099 6.05059 46.2624C6.05059 47.7594 7.02783 48.8302 8.98231 49.4748C11.7893 50.3688 13.7334 51.3877 14.8146 52.5313C15.9166 53.6748 16.4676 55.1511 16.4676 56.96C16.4676 61.3264 13.775 63.5096 8.38973 63.5096C6.70555 63.5096 5.17731 63.2497 3.80501 62.7299C3.30599 62.5428 2.91093 62.2205 2.61984 61.7631C2.34954 61.3056 2.21439 60.7962 2.21439 60.2348V59.8606C2.21439 59.4655 2.38073 59.1848 2.71341 59.0185C3.04609 58.8314 3.38916 58.821 3.74263 58.9873C5.11493 59.6734 6.56 60.0165 8.07784 60.0165C10.7185 60.0165 12.0388 59.0185 12.0388 57.0224C12.0388 56.2115 11.7893 55.5462 11.2903 55.0263C10.7913 54.4857 9.94916 54.0075 8.76399 53.5917ZM27.2598 63.5096C24.6815 63.5096 22.6959 62.8027 21.3028 61.3888C19.9097 59.9541 19.2131 57.8541 19.2131 55.0887C19.2131 52.3649 19.8785 50.2857 21.2092 48.851C22.5607 47.3955 24.4736 46.6678 26.9479 46.6678C28.0499 46.6678 29.1103 46.7406 30.1291 46.8861C30.6074 46.9485 31.0024 47.1668 31.3143 47.5411C31.6262 47.9153 31.7821 48.352 31.7821 48.851C31.7821 49.2669 31.6158 49.5995 31.2831 49.849C30.9712 50.0985 30.6074 50.1817 30.1915 50.0985C29.3806 49.9322 28.4762 49.849 27.4781 49.849C26.1682 49.849 25.191 50.2649 24.5464 51.0966C23.9018 51.9283 23.5795 53.259 23.5795 55.0887C23.5795 56.96 23.9226 58.3011 24.6088 59.112C25.2949 59.923 26.3553 60.3284 27.79 60.3284C28.8088 60.3284 29.6925 60.2348 30.441 60.0477C30.8361 59.9437 31.1896 60.0165 31.5014 60.266C31.8341 60.5155 32.0005 60.8378 32.0005 61.2329C32.0005 61.7319 31.8445 62.1685 31.5326 62.5428C31.2415 62.9171 30.8569 63.1458 30.3787 63.2289C29.3182 63.4161 28.2786 63.5096 27.2598 63.5096ZM64.5099 63.1978C64.0317 63.1978 63.6159 63.021 63.2624 62.6675C62.9089 62.3141 62.7322 61.8982 62.7322 61.42V48.7574C62.7322 48.2792 62.9089 47.8634 63.2624 47.5099C63.6159 47.1564 64.0317 46.9797 64.5099 46.9797H65.1337C65.6119 46.9797 66.0278 47.1564 66.3812 47.5099C66.7347 47.8634 66.9115 48.2792 66.9115 48.7574V50.0674C66.9115 50.0882 66.9218 50.0985 66.9426 50.0985C66.9842 50.0985 67.005 50.0882 67.005 50.0674C67.608 49.2357 68.3981 48.5599 69.3754 48.0401C70.3526 47.4995 71.4234 47.1668 72.5878 47.0421C73.0244 47.0005 73.3987 47.146 73.7106 47.4787C74.0224 47.7906 74.1784 48.1649 74.1784 48.6015C74.1784 49.0381 74.0224 49.4124 73.7106 49.7243C73.3987 50.0362 73.0244 50.2129 72.5878 50.2545C68.9075 50.5456 67.0674 52.4169 67.0674 55.8684V61.42C67.0674 61.8982 66.8907 62.3141 66.5372 62.6675C66.1837 63.021 65.7679 63.1978 65.2896 63.1978H64.5099ZM83.8724 49.5683C82.812 49.5683 81.9907 49.8698 81.4085 50.4728C80.8471 51.055 80.4937 52.0011 80.3481 53.311C80.3481 53.4773 80.4313 53.5605 80.5976 53.5605H86.7106C86.8769 53.5605 86.9601 53.4773 86.9601 53.311C86.8769 50.8159 85.8477 49.5683 83.8724 49.5683ZM84.6522 63.5096C81.9283 63.5096 79.8283 62.8027 78.3521 61.3888C76.8966 59.9541 76.1689 57.8541 76.1689 55.0887C76.1689 52.3441 76.8238 50.2545 78.1337 48.8198C79.4437 47.3851 81.3358 46.6678 83.8101 46.6678C88.426 46.6678 90.7963 49.2876 90.9211 54.5273C90.9418 55.0263 90.7651 55.4422 90.3909 55.7749C90.0166 56.1075 89.5799 56.2739 89.0809 56.2739H80.5664C80.3793 56.2739 80.3065 56.3675 80.3481 56.5546C80.4937 57.9477 80.9511 58.9665 81.7204 59.6111C82.5105 60.2348 83.6541 60.5467 85.1512 60.5467C86.0868 60.5467 87.1264 60.3908 88.27 60.0789C88.6443 59.9749 88.9874 60.0373 89.2993 60.266C89.6319 60.4947 89.7983 60.8066 89.7983 61.2017C89.7983 61.6799 89.6527 62.1062 89.3616 62.4804C89.0913 62.8339 88.7275 63.0522 88.27 63.1354C87.1057 63.3849 85.8997 63.5096 84.6522 63.5096Z" fill="#58C4FF"/>
<path d="M48.4605 49.1082C52.654 49.1082 56.3802 51.1086 58.7371 54.2072C56.8385 49.1486 51.9576 45.5486 46.2358 45.5486C40.7621 45.5486 36.0579 48.8432 33.998 53.5577H38.7119C41.0778 50.8319 44.5679 49.1082 48.4605 49.1082Z" fill="#58C4FF"/>
<path d="M44.5945 51.6149L51.5121 60.0557C51.575 60.0578 51.6384 60.0621 51.7021 60.0729C52.4531 60.1997 52.9595 60.9118 52.8327 61.6629C52.7058 62.4139 51.9938 62.9203 51.2427 62.7935C50.4916 62.6666 49.9853 61.9546 50.1121 61.2035C50.1229 61.1393 50.1397 61.0776 50.1585 61.0171L44.4656 51.7066C44.3928 51.5922 44.5104 51.5086 44.594 51.6153L44.5945 51.6149Z" fill="#58C4FF"/>
<path d="M44.5945 51.6149L51.5121 60.0557C51.575 60.0578 51.6384 60.0621 51.7021 60.0729C52.4531 60.1997 52.9595 60.9118 52.8327 61.6629C52.7058 62.4139 51.9938 62.9203 51.2427 62.7935C50.4916 62.6666 49.9853 61.9546 50.1121 61.2035C50.1229 61.1393 50.1397 61.0776 50.1585 61.0171L44.4656 51.7066C44.3928 51.5922 44.5104 51.5086 44.594 51.6153L44.5945 51.6149Z" fill="#58C4FF"/>
</svg>
