<svg version="1.2" xmlns="http://www.w3.org/2000/svg" viewBox="0 0 314 194" width="314" height="194">
	<title>Group 1171276190</title>
	<defs>
		<linearGradient id="g1" x2="1" gradientUnits="userSpaceOnUse" gradientTransform="matrix(0,99.946,-45.512,0,287.352,61.91)">
			<stop offset="0" stop-color="#16d154"/>
			<stop offset=".24" stop-color="#14cb51"/>
			<stop offset=".53" stop-color="#0ebd4b"/>
			<stop offset=".84" stop-color="#05a540"/>
			<stop offset="1" stop-color="#00963a"/>
		</linearGradient>
		<linearGradient id="g2" x2="1" gradientUnits="userSpaceOnUse" gradientTransform="matrix(89.128,0,0,60.239,179.837,32.67)">
			<stop offset="0" stop-color="#ffac05"/>
			<stop offset=".18" stop-color="#ffbe10"/>
			<stop offset=".49" stop-color="#ffd720"/>
			<stop offset=".78" stop-color="#ffe729"/>
			<stop offset="1" stop-color="#ffed2d"/>
		</linearGradient>
		<linearGradient id="g3" x2="1" gradientUnits="userSpaceOnUse" gradientTransform="matrix(100.319,0,0,45.349,69.208,23.597)">
			<stop offset="0" stop-color="#ff4d05"/>
			<stop offset=".28" stop-color="#ff6e15"/>
			<stop offset=".55" stop-color="#ff8722"/>
			<stop offset=".8" stop-color="#ff972a"/>
			<stop offset="1" stop-color="#ff9d2d"/>
		</linearGradient>
		<linearGradient id="g4" x2="1" gradientUnits="userSpaceOnUse" gradientTransform="matrix(62.093,0,0,119.938,8,101.89)">
			<stop offset="0" stop-color="#ff0508"/>
			<stop offset=".05" stop-color="#ff0b0a"/>
			<stop offset=".32" stop-color="#ff2f19"/>
			<stop offset=".58" stop-color="#ff4824"/>
			<stop offset=".81" stop-color="#ff582a"/>
			<stop offset="1" stop-color="#ff5e2d"/>
		</linearGradient>
	</defs>
	<style>
		.s0 { fill: url(#g1) } 
		.s1 { fill: url(#g2) } 
		.s2 { fill: url(#g3) } 
		.s3 { fill: url(#g4) } 
		.s4 { fill: #f5f5f5 } 
		.s5 { fill: #000000 } 
	</style>
	<path class="s0" d="m280.6 61.9c-1.2 2.7-2.9 5.2-5.1 7.4-3.1 3.1-6.9 5.2-10.9 6.2 15.9 22 24.6 48.3 24.6 75.9 0 5.8 4.7 10.5 10.4 10.5 5.8 0 10.5-4.7 10.5-10.5 0-32.7-10.4-63.7-29.5-89.5z"/>
	<path class="s1" d="m265.9 45c-23.2-23.1-52.6-37.8-84.5-42.4 1.1 2.7 1.7 5.6 1.7 8.8 0 4.4-1.2 8.5-3.3 12.1 26.9 4.2 51.7 16.7 71.3 36.2 2 2.1 4.7 3.1 7.4 3.1 2.7 0 5.4-1 7.4-3.1 4.1-4 4.1-10.6 0-14.7z"/>
	<path class="s2" d="m159.1 0.9c-32.9 0-64.1 10.3-89.9 29.5 2.7 1.1 5.2 2.8 7.5 5 3.1 3.1 5.2 6.9 6.2 10.9 22-15.9 48.4-24.5 76.2-24.5 5.7 0 10.4-4.7 10.4-10.4 0-5.8-4.7-10.5-10.4-10.5z"/>
	<path class="s3" d="m18.5 161.9c-5.8 0-10.5-4.7-10.5-10.5 0-40.2 15.7-78 44.2-106.4 4.1-4.1 10.7-4.1 14.8 0 4.1 4.1 4.1 10.7 0 14.7-24.5 24.5-38.1 57.1-38.1 91.7 0 5.8-4.6 10.5-10.4 10.5z"/>
	<path class="s4" d="m62 157.5c0-12.5 2.5-25 7.3-36.5 4.8-11.6 11.8-22.2 20.7-31 8.8-8.9 19.4-15.9 31-20.7 11.5-4.8 24-7.3 36.5-7.3 12.5 0 25 2.5 36.5 7.3 11.6 4.8 22.2 11.8 31 20.7 8.9 8.8 15.9 19.4 20.7 31 4.8 11.5 7.3 24 7.3 36.5h-95.5z"/>
	<path class="s5" d="m3.7 180.6h1.3q0.7 0 1.1-0.3 0.5-0.2 0.7-0.6 0.2-0.5 0.2-1 0-0.6-0.2-1-0.2-0.4-0.6-0.6-0.4-0.3-1-0.3-0.5 0-1 0.2-0.4 0.2-0.6 0.6-0.3 0.4-0.3 0.9h-2.3q0-1 0.5-1.8 0.6-0.8 1.5-1.2 1-0.5 2.1-0.5 1.3 0 2.2 0.4 1 0.4 1.5 1.3 0.6 0.8 0.6 2 0 0.5-0.3 1.1-0.3 0.6-0.8 1-0.5 0.5-1.3 0.7-0.7 0.3-1.7 0.3h-1.6zm0 1.8v-1.2h1.6q1.1 0 1.9 0.2 0.8 0.3 1.3 0.7 0.6 0.5 0.8 1.1 0.3 0.6 0.3 1.3 0 0.9-0.4 1.6-0.3 0.7-0.9 1.1-0.6 0.5-1.4 0.8-0.8 0.2-1.8 0.2-0.8 0-1.6-0.2-0.7-0.2-1.3-0.7-0.7-0.4-1-1.1-0.4-0.7-0.4-1.6h2.4q0 0.5 0.2 0.9 0.3 0.4 0.7 0.7 0.5 0.2 1.1 0.2 0.6 0 1.1-0.2 0.4-0.3 0.7-0.7 0.2-0.4 0.2-1 0-0.8-0.2-1.2-0.3-0.5-0.8-0.7-0.5-0.2-1.2-0.2zm16.2-1.9v2.2q0 1.5-0.3 2.5-0.3 1.1-0.9 1.7-0.5 0.7-1.3 1-0.8 0.3-1.8 0.3-0.7 0-1.4-0.2-0.6-0.2-1.2-0.6-0.5-0.4-0.9-1.1-0.3-0.6-0.5-1.5-0.2-0.9-0.2-2.1v-2.2q0-1.4 0.3-2.5 0.3-1 0.8-1.7 0.6-0.6 1.4-0.9 0.8-0.3 1.7-0.3 0.8 0 1.5 0.2 0.6 0.2 1.1 0.6 0.6 0.4 0.9 1 0.4 0.7 0.6 1.6 0.2 0.9 0.2 2zm-2.3 2.5v-2.8q0-0.7-0.1-1.3-0.1-0.5-0.3-0.9-0.1-0.4-0.3-0.6-0.3-0.3-0.6-0.4-0.3-0.1-0.7-0.1-0.4 0-0.8 0.2-0.3 0.2-0.6 0.5-0.2 0.4-0.4 1.1-0.1 0.6-0.1 1.5v2.8q0 0.8 0.1 1.3 0.1 0.6 0.2 1 0.2 0.4 0.4 0.6 0.3 0.3 0.6 0.4 0.3 0.1 0.6 0.1 0.5 0 0.9-0.2 0.3-0.2 0.6-0.6 0.2-0.4 0.3-1 0.2-0.7 0.2-1.6zm12.6-2.5v2.2q0 1.5-0.3 2.5-0.3 1.1-0.9 1.7-0.5 0.7-1.3 1-0.8 0.3-1.8 0.3-0.7 0-1.4-0.2-0.7-0.2-1.2-0.6-0.5-0.4-0.9-1.1-0.3-0.6-0.5-1.5-0.2-0.9-0.2-2.1v-2.2q0-1.4 0.3-2.5 0.3-1 0.8-1.7 0.6-0.6 1.4-0.9 0.8-0.3 1.7-0.3 0.8 0 1.4 0.2 0.7 0.2 1.2 0.6 0.5 0.4 0.9 1 0.4 0.7 0.6 1.6 0.2 0.9 0.2 2zm-2.3 2.5v-2.8q0-0.7-0.1-1.3-0.1-0.5-0.3-0.9-0.1-0.4-0.4-0.6-0.2-0.3-0.5-0.4-0.3-0.1-0.7-0.1-0.4 0-0.8 0.2-0.4 0.2-0.6 0.5-0.3 0.4-0.4 1.1-0.1 0.6-0.1 1.5v2.8q0 0.8 0.1 1.3 0.1 0.6 0.2 1 0.2 0.4 0.4 0.6 0.2 0.3 0.6 0.4 0.3 0.1 0.6 0.1 0.5 0 0.8-0.2 0.4-0.2 0.7-0.6 0.2-0.4 0.3-1 0.2-0.7 0.2-1.6z"/>
	<path class="s5" d="m285.6 186.2h0.1q1.2 0 1.9-0.3 0.8-0.3 1.3-0.8 0.5-0.6 0.7-1.3 0.3-0.7 0.3-1.6v-2.4q0-0.7-0.2-1.3-0.1-0.5-0.4-0.9-0.3-0.4-0.6-0.6-0.4-0.2-0.8-0.2-0.5 0-0.8 0.3-0.4 0.2-0.6 0.5-0.2 0.4-0.4 0.9-0.1 0.4-0.1 1 0 0.5 0.1 0.9 0.1 0.5 0.4 0.9 0.2 0.3 0.6 0.5 0.4 0.2 0.8 0.2 0.5 0 0.9-0.1 0.4-0.2 0.7-0.5 0.2-0.3 0.4-0.7 0.1-0.4 0.2-0.8l0.8 0.4q0 0.6-0.3 1.3-0.3 0.6-0.7 1.1-0.5 0.5-1.1 0.8-0.7 0.3-1.4 0.3-0.9 0-1.6-0.3-0.7-0.4-1.2-1-0.4-0.6-0.7-1.3-0.2-0.8-0.2-1.7 0-0.9 0.3-1.7 0.3-0.8 0.8-1.5 0.6-0.6 1.3-0.9 0.8-0.4 1.8-0.4 1 0 1.8 0.4 0.8 0.4 1.4 1.1 0.5 0.7 0.8 1.6 0.3 1 0.3 2.1v0.8q0 1.2-0.2 2.3-0.3 1-0.8 1.9-0.5 0.9-1.2 1.5-0.8 0.7-1.8 1-1.1 0.4-2.4 0.4h-0.2zm17-5.7v2.1q0 1.5-0.3 2.6-0.3 1-0.9 1.7-0.5 0.6-1.3 1-0.8 0.3-1.8 0.3-0.7 0-1.4-0.2-0.7-0.2-1.2-0.6-0.5-0.5-0.9-1.1-0.3-0.7-0.6-1.6-0.1-0.9-0.1-2.1v-2.1q0-1.5 0.3-2.5 0.3-1.1 0.8-1.7 0.6-0.7 1.4-1 0.8-0.3 1.7-0.3 0.8 0 1.4 0.2 0.7 0.2 1.2 0.6 0.5 0.4 0.9 1.1 0.4 0.6 0.6 1.5 0.2 0.9 0.2 2.1zm-2.3 2.5v-2.8q0-0.8-0.1-1.3-0.1-0.6-0.3-1-0.1-0.3-0.4-0.6-0.2-0.2-0.5-0.3-0.3-0.2-0.7-0.2-0.4 0-0.8 0.2-0.4 0.2-0.6 0.6-0.3 0.4-0.4 1-0.1 0.6-0.1 1.6v2.8q0 0.7 0.1 1.3 0.1 0.5 0.2 0.9 0.2 0.4 0.4 0.7 0.2 0.2 0.6 0.3 0.3 0.1 0.6 0.1 0.5 0 0.8-0.2 0.4-0.1 0.7-0.5 0.2-0.4 0.3-1.1 0.2-0.6 0.2-1.5zm12.6-2.5v2.1q0 1.5-0.3 2.6-0.3 1-0.9 1.7-0.6 0.6-1.3 1-0.8 0.3-1.8 0.3-0.8 0-1.4-0.2-0.7-0.2-1.2-0.6-0.5-0.5-0.9-1.1-0.4-0.7-0.6-1.6-0.2-0.9-0.2-2.1v-2.1q0-1.5 0.3-2.5 0.3-1.1 0.9-1.7 0.6-0.7 1.4-1 0.7-0.3 1.7-0.3 0.8 0 1.4 0.2 0.7 0.2 1.2 0.6 0.5 0.4 0.9 1.1 0.4 0.6 0.6 1.5 0.2 0.9 0.2 2.1zm-2.4 2.5v-2.8q0-0.8-0.1-1.3 0-0.6-0.2-1-0.1-0.3-0.4-0.6-0.2-0.2-0.5-0.3-0.3-0.2-0.7-0.2-0.5 0-0.8 0.2-0.4 0.2-0.6 0.6-0.3 0.4-0.4 1-0.1 0.6-0.1 1.6v2.8q0 0.7 0 1.3 0.1 0.5 0.3 0.9 0.2 0.4 0.4 0.7 0.2 0.2 0.5 0.3 0.3 0.1 0.7 0.1 0.5 0 0.8-0.2 0.4-0.1 0.6-0.5 0.3-0.4 0.4-1.1 0.1-0.6 0.1-1.5z"/>
</svg>