<svg width="216" height="215" viewBox="0 0 216 215" fill="none" xmlns="http://www.w3.org/2000/svg">
<g opacity="0.1">
<path d="M75.2848 52.1342C71.7269 54.188 67.1354 52.958 65.0816 49.4001L50.9538 24.9304C48.9 21.3725 50.13 16.781 53.6879 14.7272C57.2459 12.6733 61.8373 13.9033 63.8912 17.4612L78.0189 41.9309C80.0728 45.4889 78.8428 50.0803 75.2848 52.1342Z" fill="black"/>
<path d="M75.2848 52.1342C71.7269 54.188 67.1354 52.958 65.0816 49.4001L50.9538 24.9304C48.9 21.3725 50.13 16.781 53.6879 14.7272C57.2459 12.6733 61.8373 13.9033 63.8912 17.4612L78.0189 41.9309C80.0728 45.4889 78.8428 50.0803 75.2848 52.1342Z" fill="url(#paint0_linear_36_4928)"/>
</g>
<g opacity="0.18">
<path d="M51.9859 75.9103C49.932 79.4683 45.3405 80.6983 41.7826 78.6444L17.3129 64.5167C13.755 62.4628 12.525 57.8713 14.5788 54.3134C16.6327 50.7555 21.2242 49.5255 24.7821 51.5793L49.2518 65.7071C52.8097 67.7609 54.0397 72.3524 51.9859 75.9103Z" fill="black"/>
<path d="M51.9859 75.9103C49.932 79.4683 45.3405 80.6983 41.7826 78.6444L17.3129 64.5167C13.755 62.4628 12.525 57.8713 14.5788 54.3134C16.6327 50.7555 21.2242 49.5255 24.7821 51.5793L49.2518 65.7071C52.8097 67.7609 54.0397 72.3524 51.9859 75.9103Z" fill="url(#paint1_linear_36_4928)"/>
</g>
<g opacity="0.28">
<path d="M43.6955 108.15C43.6955 112.257 40.334 115.619 36.2263 115.619H7.96919C3.86146 115.619 0.5 112.257 0.5 108.15C0.5 104.042 3.86146 100.681 7.96919 100.681H36.2246C40.3324 100.681 43.6938 104.042 43.6938 108.15H43.6955Z" fill="black"/>
<path d="M43.6955 108.15C43.6955 112.257 40.334 115.619 36.2263 115.619H7.96919C3.86146 115.619 0.5 112.257 0.5 108.15C0.5 104.042 3.86146 100.681 7.96919 100.681H36.2246C40.3324 100.681 43.6938 104.042 43.6938 108.15H43.6955Z" fill="url(#paint2_linear_36_4928)"/>
</g>
<g opacity="0.35">
<path d="M52.6343 140.214C54.6882 143.772 53.4582 148.363 49.9002 150.417L25.4305 164.545C21.8726 166.599 17.2811 165.369 15.2273 161.811C13.1734 158.253 14.4034 153.662 17.9614 151.608L42.431 137.48C45.989 135.426 50.5804 136.656 52.6343 140.214Z" fill="black"/>
<path d="M52.6343 140.214C54.6882 143.772 53.4582 148.363 49.9002 150.417L25.4305 164.545C21.8726 166.599 17.2811 165.369 15.2273 161.811C13.1734 158.253 14.4034 153.662 17.9614 151.608L42.431 137.48C45.989 135.426 50.5804 136.656 52.6343 140.214Z" fill="url(#paint3_linear_36_4928)"/>
</g>
<g opacity="0.55">
<path d="M76.4108 163.515C79.9687 165.569 81.1988 170.16 79.1449 173.718L65.0172 198.188C62.9633 201.746 58.3718 202.976 54.8139 200.922C51.256 198.868 50.026 194.276 52.0798 190.719L66.2075 166.249C68.2614 162.691 72.8529 161.461 76.4108 163.515Z" fill="black"/>
<path d="M76.4108 163.515C79.9687 165.569 81.1988 170.16 79.1449 173.718L65.0172 198.188C62.9633 201.746 58.3718 202.976 54.8139 200.922C51.256 198.868 50.026 194.276 52.0798 190.719L66.2075 166.249C68.2614 162.691 72.8529 161.461 76.4108 163.515Z" fill="url(#paint4_linear_36_4928)"/>
</g>
<g opacity="0.62">
<path d="M108.648 215C104.525 215 101.179 211.653 101.179 207.531V179.275C101.179 175.153 104.525 171.806 108.648 171.806C112.771 171.806 116.117 175.153 116.117 179.275V207.531C116.117 211.653 112.771 215 108.648 215Z" fill="black"/>
<path d="M108.648 215C104.525 215 101.179 211.653 101.179 207.531V179.275C101.179 175.153 104.525 171.806 108.648 171.806C112.771 171.806 116.117 175.153 116.117 179.275V207.531C116.117 211.653 112.771 215 108.648 215Z" fill="url(#paint5_linear_36_4928)"/>
<path d="M108.648 215C104.525 215 101.179 211.653 101.179 207.531V179.275C101.179 175.153 104.525 171.806 108.648 171.806C112.771 171.806 116.117 175.153 116.117 179.275V207.531C116.117 211.653 112.771 215 108.648 215Z" fill="url(#paint6_linear_36_4928)"/>
</g>
<g opacity="0.69">
<path d="M140.714 162.864C144.272 160.81 148.864 162.04 150.918 165.598L165.045 190.068C167.099 193.626 165.869 198.217 162.311 200.271C158.753 202.325 154.162 201.095 152.108 197.537L137.98 173.068C135.926 169.51 137.156 164.918 140.714 162.864Z" fill="black"/>
<path d="M140.714 162.864C144.272 160.81 148.864 162.04 150.918 165.598L165.045 190.068C167.099 193.626 165.869 198.217 162.311 200.271C158.753 202.325 154.162 201.095 152.108 197.537L137.98 173.068C135.926 169.51 137.156 164.918 140.714 162.864Z" fill="url(#paint7_linear_36_4928)"/>
<path d="M140.714 162.864C144.272 160.81 148.864 162.04 150.918 165.598L165.045 190.068C167.099 193.626 165.869 198.217 162.311 200.271C158.753 202.325 154.162 201.095 152.108 197.537L137.98 173.068C135.926 169.51 137.156 164.918 140.714 162.864Z" fill="url(#paint8_linear_36_4928)"/>
</g>
<g opacity="0.68">
<path d="M164.015 139.09C166.069 135.532 170.661 134.302 174.219 136.356L198.688 150.483C202.246 152.537 203.476 157.129 201.422 160.687C199.369 164.245 194.777 165.475 191.219 163.421L166.749 149.293C163.192 147.239 161.962 142.648 164.015 139.09Z" fill="black"/>
<path d="M164.015 139.09C166.069 135.532 170.661 134.302 174.219 136.356L198.688 150.483C202.246 152.537 203.476 157.129 201.422 160.687C199.369 164.245 194.777 165.475 191.219 163.421L166.749 149.293C163.192 147.239 161.962 142.648 164.015 139.09Z" fill="url(#paint9_linear_36_4928)"/>
<path d="M164.015 139.09C166.069 135.532 170.661 134.302 174.219 136.356L198.688 150.483C202.246 152.537 203.476 157.129 201.422 160.687C199.369 164.245 194.777 165.475 191.219 163.421L166.749 149.293C163.192 147.239 161.962 142.648 164.015 139.09Z" fill="url(#paint10_linear_36_4928)"/>
</g>
<g opacity="0.76">
<path d="M215.499 106.852V106.85C215.499 102.725 212.155 99.3812 208.03 99.3812H179.773C175.648 99.3812 172.304 102.725 172.304 106.85V106.852C172.304 110.977 175.648 114.321 179.773 114.321H208.03C212.155 114.321 215.499 110.977 215.499 106.852Z" fill="black"/>
<path d="M215.499 106.852V106.85C215.499 102.725 212.155 99.3812 208.03 99.3812H179.773C175.648 99.3812 172.304 102.725 172.304 106.85V106.852C172.304 110.977 175.648 114.321 179.773 114.321H208.03C212.155 114.321 215.499 110.977 215.499 106.852Z" fill="url(#paint11_linear_36_4928)"/>
<path d="M215.499 106.852V106.85C215.499 102.725 212.155 99.3812 208.03 99.3812H179.773C175.648 99.3812 172.304 102.725 172.304 106.85V106.852C172.304 110.977 175.648 114.321 179.773 114.321H208.03C212.155 114.321 215.499 110.977 215.499 106.852Z" fill="url(#paint12_linear_36_4928)"/>
</g>
<g opacity="0.81">
<path d="M163.364 74.7843C161.31 71.2264 162.54 66.6349 166.098 64.5811L190.568 50.4534C194.126 48.3995 198.717 49.6295 200.771 53.1874C202.825 56.7454 201.595 61.3368 198.037 63.3907L173.567 77.5184C170.009 79.5723 165.418 78.3423 163.364 74.7843Z" fill="black"/>
<path d="M163.364 74.7843C161.31 71.2264 162.54 66.6349 166.098 64.5811L190.568 50.4534C194.126 48.3995 198.717 49.6295 200.771 53.1874C202.825 56.7454 201.595 61.3368 198.037 63.3907L173.567 77.5184C170.009 79.5723 165.418 78.3423 163.364 74.7843Z" fill="url(#paint13_linear_36_4928)"/>
</g>
<g opacity="0.81">
<path d="M163.364 74.7843C161.31 71.2264 162.54 66.6349 166.098 64.5811L190.568 50.4534C194.126 48.3995 198.717 49.6295 200.771 53.1874C202.825 56.7454 201.595 61.3368 198.037 63.3907L173.567 77.5184C170.009 79.5723 165.418 78.3423 163.364 74.7843Z" fill="black"/>
<path d="M163.364 74.7843C161.31 71.2264 162.54 66.6349 166.098 64.5811L190.568 50.4534C194.126 48.3995 198.717 49.6295 200.771 53.1874C202.825 56.7454 201.595 61.3368 198.037 63.3907L173.567 77.5184C170.009 79.5723 165.418 78.3423 163.364 74.7843Z" fill="url(#paint14_linear_36_4928)"/>
</g>
<g opacity="0.85">
<path d="M139.59 51.4854C136.032 49.4315 134.802 44.84 136.856 41.2821L150.984 16.8124C153.038 13.2545 157.629 12.0245 161.187 14.0784C164.745 16.1322 165.975 20.7237 163.921 24.2816L149.794 48.7513C147.74 52.3092 143.148 53.5392 139.59 51.4854Z" fill="black"/>
<path d="M139.59 51.4854C136.032 49.4315 134.802 44.84 136.856 41.2821L150.984 16.8124C153.038 13.2545 157.629 12.0245 161.187 14.0784C164.745 16.1322 165.975 20.7237 163.921 24.2816L149.794 48.7513C147.74 52.3092 143.148 53.5392 139.59 51.4854Z" fill="url(#paint15_linear_36_4928)"/>
<path d="M139.59 51.4854C136.032 49.4315 134.802 44.84 136.856 41.2821L150.984 16.8124C153.038 13.2545 157.629 12.0245 161.187 14.0784C164.745 16.1322 165.975 20.7237 163.921 24.2816L149.794 48.7513C147.74 52.3092 143.148 53.5392 139.59 51.4854Z" fill="url(#paint16_linear_36_4928)"/>
</g>
<path opacity="0.93" d="M107.35 0C111.473 0 114.819 3.34661 114.819 7.46919V35.7246C114.819 39.8472 111.473 43.1938 107.35 43.1938C103.227 43.1938 99.8809 39.8472 99.8809 35.7246V7.46919C99.8809 3.34661 103.227 0 107.35 0Z" fill="black"/>
<g opacity="0.93">
<path d="M107.35 0C111.473 0 114.819 3.34661 114.819 7.46919V35.7246C114.819 39.8472 111.473 43.1938 107.35 43.1938C103.227 43.1938 99.8809 39.8472 99.8809 35.7246V7.46919C99.8809 3.34661 103.227 0 107.35 0Z" fill="black"/>
<path d="M107.35 0C111.473 0 114.819 3.34661 114.819 7.46919V35.7246C114.819 39.8472 111.473 43.1938 107.35 43.1938C103.227 43.1938 99.8809 39.8472 99.8809 35.7246V7.46919C99.8809 3.34661 103.227 0 107.35 0Z" fill="url(#paint17_linear_36_4928)"/>
<path d="M107.35 0C111.473 0 114.819 3.34661 114.819 7.46919V35.7246C114.819 39.8472 111.473 43.1938 107.35 43.1938C103.227 43.1938 99.8809 39.8472 99.8809 35.7246V7.46919C99.8809 3.34661 103.227 0 107.35 0Z" fill="url(#paint18_linear_36_4928)"/>
</g>
<defs>
<linearGradient id="paint0_linear_36_4928" x1="49.9604" y1="33.4302" x2="79.0151" y2="33.4302" gradientUnits="userSpaceOnUse">
<stop stop-color="#00963A"/>
<stop offset="0.16" stop-color="#05A540"/>
<stop offset="0.47" stop-color="#0EBD4B"/>
<stop offset="0.76" stop-color="#14CB51"/>
<stop offset="1" stop-color="#16D154"/>
</linearGradient>
<linearGradient id="paint1_linear_36_4928" x1="13.5858" y1="65.1116" x2="52.9826" y2="65.1116" gradientUnits="userSpaceOnUse">
<stop stop-color="#00963A"/>
<stop offset="0.16" stop-color="#05A540"/>
<stop offset="0.47" stop-color="#0EBD4B"/>
<stop offset="0.76" stop-color="#14CB51"/>
<stop offset="1" stop-color="#16D154"/>
</linearGradient>
<linearGradient id="paint2_linear_36_4928" x1="0.502044" y1="108.15" x2="43.6975" y2="108.15" gradientUnits="userSpaceOnUse">
<stop stop-color="#00963A"/>
<stop offset="0.16" stop-color="#05A540"/>
<stop offset="0.47" stop-color="#0EBD4B"/>
<stop offset="0.76" stop-color="#14CB51"/>
<stop offset="1" stop-color="#16D154"/>
</linearGradient>
<linearGradient id="paint3_linear_36_4928" x1="14.2324" y1="151.011" x2="53.6289" y2="151.011" gradientUnits="userSpaceOnUse">
<stop stop-color="#FFAC05"/>
<stop offset="0.18" stop-color="#FFBE10"/>
<stop offset="0.49" stop-color="#FFD720"/>
<stop offset="0.78" stop-color="#FFE729"/>
<stop offset="1" stop-color="#FFED2D"/>
</linearGradient>
<linearGradient id="paint4_linear_36_4928" x1="51.085" y1="182.217" x2="80.1396" y2="182.217" gradientUnits="userSpaceOnUse">
<stop stop-color="#FFAC05"/>
<stop offset="0.18" stop-color="#FFBE10"/>
<stop offset="0.49" stop-color="#FFD720"/>
<stop offset="0.78" stop-color="#FFE729"/>
<stop offset="1" stop-color="#FFED2D"/>
</linearGradient>
<linearGradient id="paint5_linear_36_4928" x1="116.117" y1="193.404" x2="101.179" y2="193.404" gradientUnits="userSpaceOnUse">
<stop stop-color="#FF0508"/>
<stop offset="0.05" stop-color="#FF0B0A"/>
<stop offset="0.32" stop-color="#FF2F19"/>
<stop offset="0.58" stop-color="#FF4824"/>
<stop offset="0.81" stop-color="#FF582A"/>
<stop offset="1" stop-color="#FF5E2D"/>
</linearGradient>
<linearGradient id="paint6_linear_36_4928" x1="116.117" y1="193.405" x2="101.179" y2="193.405" gradientUnits="userSpaceOnUse">
<stop stop-color="#FFAC05"/>
<stop offset="0.18" stop-color="#FFBE10"/>
<stop offset="0.49" stop-color="#FFD720"/>
<stop offset="0.78" stop-color="#FFE729"/>
<stop offset="1" stop-color="#FFED2D"/>
</linearGradient>
<linearGradient id="paint7_linear_36_4928" x1="136.985" y1="181.567" x2="166.04" y2="181.567" gradientUnits="userSpaceOnUse">
<stop stop-color="#FF0508"/>
<stop offset="0.05" stop-color="#FF0B0A"/>
<stop offset="0.32" stop-color="#FF2F19"/>
<stop offset="0.58" stop-color="#FF4824"/>
<stop offset="0.81" stop-color="#FF582A"/>
<stop offset="1" stop-color="#FF5E2D"/>
</linearGradient>
<linearGradient id="paint8_linear_36_4928" x1="136.985" y1="181.567" x2="166.04" y2="181.567" gradientUnits="userSpaceOnUse">
<stop stop-color="#FF4D05"/>
<stop offset="0.28" stop-color="#FF6E15"/>
<stop offset="0.55" stop-color="#FF8722"/>
<stop offset="0.8" stop-color="#FF972A"/>
<stop offset="1" stop-color="#FF9D2D"/>
</linearGradient>
<linearGradient id="paint9_linear_36_4928" x1="163.021" y1="149.888" x2="202.417" y2="149.888" gradientUnits="userSpaceOnUse">
<stop stop-color="#FF0508"/>
<stop offset="0.05" stop-color="#FF0B0A"/>
<stop offset="0.32" stop-color="#FF2F19"/>
<stop offset="0.58" stop-color="#FF4824"/>
<stop offset="0.81" stop-color="#FF582A"/>
<stop offset="1" stop-color="#FF5E2D"/>
</linearGradient>
<linearGradient id="paint10_linear_36_4928" x1="163.021" y1="149.887" x2="202.417" y2="149.887" gradientUnits="userSpaceOnUse">
<stop stop-color="#FF4D05"/>
<stop offset="0.28" stop-color="#FF6E15"/>
<stop offset="0.55" stop-color="#FF8722"/>
<stop offset="0.8" stop-color="#FF972A"/>
<stop offset="1" stop-color="#FF9D2D"/>
</linearGradient>
<linearGradient id="paint11_linear_36_4928" x1="193.902" y1="99.3812" x2="193.902" y2="114.321" gradientUnits="userSpaceOnUse">
<stop stop-color="#FF0508"/>
<stop offset="0.05" stop-color="#FF0B0A"/>
<stop offset="0.32" stop-color="#FF2F19"/>
<stop offset="0.58" stop-color="#FF4824"/>
<stop offset="0.81" stop-color="#FF582A"/>
<stop offset="1" stop-color="#FF5E2D"/>
</linearGradient>
<linearGradient id="paint12_linear_36_4928" x1="193.902" y1="99.3812" x2="193.902" y2="114.321" gradientUnits="userSpaceOnUse">
<stop stop-color="#FF4D05"/>
<stop offset="0.28" stop-color="#FF6E15"/>
<stop offset="0.55" stop-color="#FF8722"/>
<stop offset="0.8" stop-color="#FF972A"/>
<stop offset="1" stop-color="#FF9D2D"/>
</linearGradient>
<linearGradient id="paint13_linear_36_4928" x1="162.369" y1="63.9852" x2="201.766" y2="63.9852" gradientUnits="userSpaceOnUse">
<stop stop-color="#FF4D05"/>
<stop offset="0.28" stop-color="#FF6E15"/>
<stop offset="0.55" stop-color="#FF8722"/>
<stop offset="0.8" stop-color="#FF972A"/>
<stop offset="1" stop-color="#FF9D2D"/>
</linearGradient>
<linearGradient id="paint14_linear_36_4928" x1="162.369" y1="63.9855" x2="201.766" y2="63.9855" gradientUnits="userSpaceOnUse">
<stop stop-color="#FF0508"/>
<stop offset="0.05" stop-color="#FF0B0A"/>
<stop offset="0.32" stop-color="#FF2F19"/>
<stop offset="0.58" stop-color="#FF4824"/>
<stop offset="0.81" stop-color="#FF582A"/>
<stop offset="1" stop-color="#FF5E2D"/>
</linearGradient>
<linearGradient id="paint15_linear_36_4928" x1="135.861" y1="32.7809" x2="164.916" y2="32.7809" gradientUnits="userSpaceOnUse">
<stop stop-color="#FF4D05"/>
<stop offset="0.28" stop-color="#FF6E15"/>
<stop offset="0.55" stop-color="#FF8722"/>
<stop offset="0.8" stop-color="#FF972A"/>
<stop offset="1" stop-color="#FF9D2D"/>
</linearGradient>
<linearGradient id="paint16_linear_36_4928" x1="135.861" y1="32.7813" x2="164.916" y2="32.7813" gradientUnits="userSpaceOnUse">
<stop stop-color="#FF0508"/>
<stop offset="0.05" stop-color="#FF0B0A"/>
<stop offset="0.32" stop-color="#FF2F19"/>
<stop offset="0.58" stop-color="#FF4824"/>
<stop offset="0.81" stop-color="#FF582A"/>
<stop offset="1" stop-color="#FF5E2D"/>
</linearGradient>
<linearGradient id="paint17_linear_36_4928" x1="99.8809" y1="21.5959" x2="114.819" y2="21.5959" gradientUnits="userSpaceOnUse">
<stop stop-color="#FF4D05"/>
<stop offset="0.28" stop-color="#FF6E15"/>
<stop offset="0.55" stop-color="#FF8722"/>
<stop offset="0.8" stop-color="#FF972A"/>
<stop offset="1" stop-color="#FF9D2D"/>
</linearGradient>
<linearGradient id="paint18_linear_36_4928" x1="99.8809" y1="21.5963" x2="114.819" y2="21.5963" gradientUnits="userSpaceOnUse">
<stop stop-color="#FF0508"/>
<stop offset="0.05" stop-color="#FF0B0A"/>
<stop offset="0.32" stop-color="#FF2F19"/>
<stop offset="0.58" stop-color="#FF4824"/>
<stop offset="0.81" stop-color="#FF582A"/>
<stop offset="1" stop-color="#FF5E2D"/>
</linearGradient>
</defs>
</svg>
